{"title":"Dawn Of The Planet Of The Apes 2014 720p HDTS Line Audio x264 Pi","uid":10622350,"size":2057179037,"categoryP":"video","categoryS":"hd___movies","magnet":"?xt=urn:btih:1c6b10e29540f63584f113194595e57397b1da75&amp;dn=Dawn+Of+The+Planet+Of+The+Apes+2014+720p+HDTS+Line+Audio+x264+Pi&amp;tr=udp%3A%2F%2Ftracker.openbittorrent.com%3A80&amp;tr=udp%3A%2F%2Fopen.demonii.com%3A1337&amp;tr=udp%3A%2F%2Ftracker.coppersurfer.tk%3A6969&amp;tr=udp%3A%2F%2Fexodus.desync.com%3A6969","seeders":12,"leechers":0,"uploader":"shawnmurthy","files":-1,"time":1406179918,"description":"[color=red][b]MUCH MUCH MUCH BETTER THEN THE FIRST CAM I UPLOADED....THANKS TO SPECTRE FOR THE SOURCE......THE OTHER ONES OUT RIGHT NOW LOOKS LIKE 3D VERSION THIS ONE IS 2D SO  A LITTLE BIT MORE CLEAR IN THE VIDEO FIXED CONTRAST, BRIGHTENED VIDEO AND DID SOME CUTS TO MAKE SURE MOST SCENES ARE CLEAR TO WATCH....AUDIO IS GOOD SO DINT HAVE TO DO MUCH THERE.........ENJOY...PIMP4003 OUT[/b][/color]\n\nSOURCE-SPECTRE\n\n[IMG]http://i.imgur.com/Q7K4oJu.png[/IMG]\n\n[IMG]http://i.imgur.com/69uL5sU.jpg[/IMG]\n\n[URL=http://istoreimg.com/i/53ca7b43bb0d2.html][IMG]http://istoreimg.com/upload/small/2014/07/20/53ca7b43bb096.jpg[/IMG][/URL]\n\nDawn Of The Planet Of The Apes 2014 720p HDTS Line Audio x264 Pimp4003\n\nENJOY\n\nPIMP4003\n\nVideo\nID                                       : 2\nFormat                                   : AVC\nFormat/Info                              : Advanced Video Codec\nFormat profile                           : &lt;a class=&quot;__cf_email__&quot; href=&quot;/cdn-cgi/l/email-protection&quot; data-cfemail=&quot;83c1e2f0e6efeaede6c3cfb0adb3&quot;&gt;[email&amp;#160;protected]&lt;/a&gt;&lt;script cf-hash='f9e31' type=&quot;text/javascript&quot;&gt;\n/* &lt;![CDATA[ */!function(){try{var t=&quot;currentScript&quot;in document?document.currentScript:function(){for(var t=document.getElementsByTagName(&quot;script&quot;),e=t.length;e--;)if(t[e].getAttribute(&quot;cf-hash&quot;))return t[e]}();if(t&amp;&amp;t.previousSibling){var e,r,n,i,c=t.previousSibling,a=c.getAttribute(&quot;data-cfemail&quot;);if(a){for(e=&quot;&quot;,r=parseInt(a.substr(0,2),16),n=2;a.length-n;n+=2)i=parseInt(a.substr(n,2),16)^r,e+=String.fromCharCode(i);e=document.createTextNode(e),c.parentNode.replaceChild(e,c)}}}catch(u){}}();/* ]]&gt; */&lt;/script&gt;\nFormat settings, CABAC                   : No\nFormat settings, ReFrames                : 1 frame\nFormat settings, GOP                     : M=1, N=25\nMuxing mode                              : Container profile=&lt;a class=&quot;__cf_email__&quot; href=&quot;/cdn-cgi/l/email-protection&quot; data-cfemail=&quot;2c6e4d5f49404542496c18021d&quot;&gt;[email&amp;#160;protected]&lt;/a&gt;&lt;script cf-hash='f9e31' type=&quot;text/javascript&quot;&gt;\n/* &lt;![CDATA[ */!function(){try{var t=&quot;currentScript&quot;in document?document.currentScript:function(){for(var t=document.getElementsByTagName(&quot;script&quot;),e=t.length;e--;)if(t[e].getAttribute(&quot;cf-hash&quot;))return t[e]}();if(t&amp;&amp;t.previousSibling){var e,r,n,i,c=t.previousSibling,a=c.getAttribute(&quot;data-cfemail&quot;);if(a){for(e=&quot;&quot;,r=parseInt(a.substr(0,2),16),n=2;a.length-n;n+=2)i=parseInt(a.substr(n,2),16)^r,e+=String.fromCharCode(i);e=document.createTextNode(e),c.parentNode.replaceChild(e,c)}}}catch(u){}}();/* ]]&gt; */&lt;/script&gt;\nCodec ID                                 : avc1\nCodec ID/Info                            : Advanced Video Coding\nDuration                                 : 2h 1mn\nBit rate                                 : 2 083 Kbps\nWidth                                    : 1 280 pixels\nHeight                                   : 720 pixels\nDisplay aspect ratio                     : 16:9\nFrame rate mode                          : Constant\nFrame rate                               : 23.976 fps\nOriginal frame rate                      : 23.000 fps\nColor space                              : YUV\nChroma subsampling                       : 4:2:0\nBit depth                                : 8 bits\nScan type                                : Progressive\nBits/(Pixel*Frame)                       : 0.094\nStream size                              : 1.77 GiB (92%)\nWriting library                          : \nLanguage                                 : English\n\nAudio\nID                                       : 1\nFormat                                   : AAC\nFormat/Info                              : Advanced Audio Codec\nFormat profile                           : LC\nCodec ID                                 : 40\nDuration                                 : 2h 1mn\nBit rate mode                            : Constant\nBit rate                                 : 165 Kbps\nChannel(s)                               : 2 channels\nChannel positions                        : Front: L R\nSampling rate                            : 48.0 KHz\nCompression mode                         : Lossy\nStream size                              : 144 MiB (7%)\nLanguage                                 : English\n","torrent":{"xt":"urn:btih:1c6b10e29540f63584f113194595e57397b1da75","amp;dn":"Dawn+Of+The+Planet+Of+The+Apes+2014+720p+HDTS+Line+Audio+x264+Pi","amp;tr":["udp%3A%2F%2Ftracker.openbittorrent.com%3A80","udp%3A%2F%2Fopen.demonii.com%3A1337","udp%3A%2F%2Ftracker.coppersurfer.tk%3A6969","udp%3A%2F%2Fexodus.desync.com%3A6969"],"infoHash":"1c6b10e29540f63584f113194595e57397b1da75","infoHashBuffer":{"type":"Buffer","data":[28,107,16,226,149,64,246,53,132,241,19,25,69,149,229,115,151,177,218,117]},"announce":[],"urlList":[]}}